<?xml version="1.0" encoding="utf-8"?>
<svg xmlns="http://www.w3.org/2000/svg" fill="none" height="25" viewBox="0 0 167 25" width="167">
  <g clip-path="url(#clip0_344_631)">
    <path d="M39.8629 20.2132C39.9571 20.77 40.0235 21.3267 40.0623 21.9391V22.184H28.7702C26.7512 22.1412 24.7861 21.5214 23.1048 20.397L22.8777 20.2467L23.0605 20.0462C23.8481 19.1978 24.4985 18.2303 24.9877 17.1791C25.2702 16.5281 25.4118 15.824 25.4031 15.1137C25.4063 14.2371 25.1562 13.3784 24.6831 12.6419C24.299 12.0643 23.7792 11.5909 23.1697 11.2634C22.5601 10.936 21.8797 10.7647 21.1886 10.7647C20.4975 10.7647 19.817 10.936 19.2075 11.2634C18.598 11.5909 18.0782 12.0643 17.6941 12.6419C17.221 13.3784 16.9709 14.2371 16.9741 15.1137C16.9793 15.8273 17.136 16.5314 17.4338 17.1791C17.921 18.2382 18.5714 19.2133 19.361 20.0685L19.5438 20.2689L19.3167 20.4192C17.6336 21.5377 15.6686 22.1518 13.6513 22.1896H2.33706V21.9446C2.52537 18.9476 3.42033 16.0387 4.948 13.458C6.47567 10.8774 8.59222 8.69924 11.1228 7.10341C13.6534 5.50758 16.5253 4.53991 19.5014 4.28034C22.4775 4.02077 25.4724 4.47675 28.2385 5.6106V3.14436C25.9827 2.33446 23.6061 1.91652 21.2107 1.90845C15.5774 1.94517 10.1868 4.21866 6.21376 8.23346C2.24069 12.2483 0.00718826 17.6789 0 23.342V24.5H13.6568C16.3772 24.4641 19.0169 23.566 21.1997 21.9335C23.3824 23.566 26.0221 24.4641 28.7425 24.5H42.4215V23.342C42.4199 22.2948 42.3421 21.2491 42.1889 20.2132H39.8629ZM21.255 18.5821L21.2107 18.6322L21.1664 18.5821C20.4982 17.8919 19.9498 17.094 19.5438 16.2216C19.3701 15.8418 19.2903 15.4254 19.3112 15.008C19.322 14.613 19.4387 14.2283 19.649 13.8945C19.8238 13.6407 20.0572 13.4333 20.3292 13.2901C20.6012 13.1468 20.9037 13.072 21.2107 13.072C21.5178 13.072 21.8203 13.1468 22.0923 13.2901C22.3643 13.4333 22.5977 13.6407 22.7725 13.8945C22.9828 14.2283 23.0995 14.613 23.1103 15.008C23.1312 15.4254 23.0514 15.8418 22.8777 16.2216C22.4717 17.094 21.9233 17.8919 21.255 18.5821Z" fill="#ffff"/>
    <path d="M45.6502 16.1382C45.109 16.9343 44.3815 17.5847 43.5318 18.0322C42.682 18.4797 41.736 18.7106 40.7767 18.7046C37.2102 18.7046 34.5852 15.7819 34.5852 11.8626C34.5852 7.94334 37.2102 5.02058 40.8321 5.02058C41.7761 5.00625 42.7091 5.22517 43.5492 5.6581C44.3893 6.09103 45.1107 6.72473 45.6502 7.50353V0.477783H48.2476V18.4486H45.6502V16.1382ZM41.4635 16.5C43.8338 16.5 45.6447 14.5237 45.6447 11.8626C45.6447 9.20151 43.8393 7.19734 41.4635 7.19734C39.0876 7.19734 37.2822 9.19595 37.2822 11.8626C37.2822 14.5293 39.0876 16.5 41.4635 16.5Z" fill="white"/>
    <path d="M57.1803 5.02051C61.284 5.02051 64.3798 8.22162 63.9866 12.6308H53.0213C53.3037 14.9634 55.0371 16.5779 57.1803 16.5779C57.9432 16.5972 58.6945 16.3878 59.3385 15.9763C59.9825 15.5649 60.4902 14.97 60.7967 14.2675H63.5657C62.6741 16.962 60.3038 18.7213 57.1693 18.7213C56.2648 18.7489 55.3642 18.5905 54.5228 18.2559C53.6814 17.9213 52.9168 17.4175 52.2759 16.7753C51.635 16.1331 51.1313 15.3662 50.7957 14.5214C50.4601 13.6766 50.2997 12.7718 50.3242 11.8625C50.3019 10.9536 50.4644 10.0497 50.8017 9.20617C51.139 8.3626 51.644 7.59711 52.2858 6.95659C52.9277 6.31606 53.6928 5.81397 54.5344 5.48106C55.376 5.14816 56.2764 4.99144 57.1803 5.02051ZM61.2563 10.6322C61.1002 9.65781 60.6039 8.77119 59.8565 8.13123C59.1091 7.49126 58.1594 7.13978 57.1776 7.13978C56.1958 7.13978 55.2461 7.49126 54.4987 8.13123C53.7512 8.77119 53.255 9.65781 53.0988 10.6322H61.2563Z" fill="white"/>
    <path d="M71.6846 10.8103C72.7441 10.8292 73.8009 10.9241 74.8469 11.0943V10.0142C74.8469 8.24946 73.6451 7.09149 71.7622 7.09149C69.8792 7.09149 68.7495 7.99337 68.6498 9.63011H66.0469C66.1798 6.94118 68.0904 5.02051 71.7622 5.02051C75.3065 5.02051 77.4442 6.94118 77.4442 10.1701V18.4485H74.8469V16.294C74.278 17.0626 73.534 17.6826 72.6773 18.1021C71.8206 18.5216 70.8762 18.7282 69.9235 18.7046C67.5532 18.7046 65.5928 17.4965 65.5928 14.9634C65.5928 12.3246 67.808 10.8103 71.6846 10.8103ZM70.6379 16.6781C71.6539 16.6675 72.6335 16.2964 73.4037 15.6301C74.1738 14.9639 74.685 14.0455 74.8469 13.0372C73.8198 12.8471 72.7787 12.7447 71.7345 12.731C69.2091 12.731 68.24 13.6051 68.24 14.8076C68.24 16.1381 69.2368 16.6781 70.6379 16.6781Z" fill="white"/>
    <path d="M82.8383 0.5H80.241V18.4485H82.8383V0.5Z" fill="white"/>
    <path d="M32.5029 0.5H29.9055V18.4485H32.5029V0.5Z" fill="white"/>
    <path d="M93.9918 0.5H91.3889V18.4485H93.9918V0.5Z" fill="white"/>
    <path d="M96.8994 5.27653H99.5023V6.891C99.9499 6.29428 100.533 5.81335 101.202 5.48806C101.871 5.16277 102.608 5.00247 103.351 5.02044C104.191 4.98283 105.026 5.17789 105.763 5.58433C106.5 5.99077 107.112 6.59297 107.532 7.32524C107.981 6.5902 108.618 5.98903 109.375 5.58384C110.132 5.17865 110.984 4.98415 111.841 5.02044C114.821 5.02044 116.914 7.04132 116.914 9.91397V18.4484H114.311V10.2202C114.229 9.46354 113.871 8.76431 113.306 8.25743C112.741 7.75055 112.01 7.47195 111.253 7.47541C110.496 7.47887 109.767 7.76414 109.206 8.27616C108.646 8.78818 108.294 9.49065 108.219 10.248V18.4484H105.594V10.2202C105.592 9.81806 105.512 9.42026 105.357 9.04947C105.202 8.67868 104.976 8.34216 104.692 8.05912C104.408 7.77609 104.071 7.55208 103.701 7.39989C103.331 7.24771 102.934 7.17032 102.534 7.17214C102.134 7.17397 101.739 7.25498 101.37 7.41055C101.001 7.56611 100.666 7.79319 100.385 8.07881C99.816 8.65564 99.4986 9.43592 99.5023 10.248V18.4484H96.8994V5.27653Z" fill="white"/>
    <path d="M125.287 10.8103C126.347 10.829 127.404 10.9238 128.45 11.0943V10.0142C128.45 8.24946 127.253 7.09149 125.365 7.09149C123.476 7.09149 122.358 7.99337 122.258 9.63011H119.655C119.783 6.94118 121.693 5.02051 125.365 5.02051C128.909 5.02051 131.053 6.94118 131.053 10.1701V18.4485H128.45V16.294C127.882 17.0621 127.139 17.682 126.283 18.1015C125.427 18.5209 124.484 18.7278 123.532 18.7046C121.162 18.7046 119.196 17.4965 119.196 14.9634C119.196 12.3246 121.411 10.8103 125.287 10.8103ZM124.246 16.6781C125.262 16.6684 126.241 16.2975 127.011 15.631C127.78 14.9645 128.29 14.0456 128.45 13.0372C127.424 12.8474 126.385 12.7449 125.343 12.731C122.817 12.731 121.848 13.6051 121.848 14.8076C121.848 16.1381 122.84 16.6781 124.246 16.6781Z" fill="white"/>
    <path d="M136.286 18.7045C136.541 20.4192 138.097 21.6774 140.163 21.6774C142.666 21.6774 144.399 20.0852 144.399 17.6802V15.7317C143.841 16.5032 143.108 17.1291 142.26 17.5572C141.412 17.9853 140.475 18.2031 139.526 18.1924C135.959 18.1924 133.334 15.3698 133.334 11.6064C133.334 7.84301 135.959 5.02047 139.581 5.02047C140.515 5.00374 141.439 5.21119 142.277 5.6256C143.115 6.04001 143.843 6.64942 144.399 7.40321V5.27656H146.997V17.296C146.997 21.193 144.089 23.8263 140.163 23.8263C136.724 23.8263 133.993 21.6997 133.639 18.7045H136.286ZM140.24 15.9878C140.804 15.9882 141.362 15.8741 141.881 15.6521C142.4 15.4302 142.869 15.1051 143.259 14.6963C143.65 14.2875 143.954 13.8036 144.154 13.2735C144.354 12.7435 144.445 12.1783 144.421 11.612C144.451 11.0418 144.364 10.4716 144.167 9.93612C143.97 9.40062 143.667 8.911 143.276 8.49705C142.885 8.08309 142.414 7.75346 141.892 7.52821C141.37 7.30296 140.808 7.18681 140.24 7.18681C139.672 7.18681 139.11 7.30296 138.588 7.52821C138.066 7.75346 137.596 8.08309 137.205 8.49705C136.813 8.911 136.51 9.40062 136.313 9.93612C136.116 10.4716 136.03 11.0418 136.059 11.612C136.034 12.1789 136.124 12.7451 136.323 13.2761C136.522 13.8072 136.827 14.2921 137.217 14.7017C137.608 15.1112 138.078 15.4368 138.597 15.6588C139.117 15.8808 139.676 15.9946 140.24 15.9933" fill="white"/>
    <path d="M156.151 5.02064C160.255 5.02064 163.35 8.22175 162.957 12.6309H151.997C152.28 14.9636 154.008 16.5781 156.151 16.5781C156.914 16.594 157.664 16.3833 158.309 15.9723C158.953 15.5614 159.462 14.9684 159.773 14.2677H162.542C161.65 16.9622 159.274 18.7214 156.14 18.7214C155.236 18.7505 154.336 18.5938 153.494 18.2608C152.652 17.9279 151.887 17.4259 151.245 16.7853C150.603 16.1448 150.098 15.3793 149.761 14.5357C149.424 13.6922 149.261 12.7883 149.284 11.8794C149.259 10.9681 149.42 10.0615 149.757 9.21513C150.094 8.36882 150.6 7.60078 151.243 6.95828C151.886 6.31579 152.654 5.81243 153.498 5.4792C154.342 5.14597 155.245 4.98992 156.151 5.02064ZM160.232 10.6323C160.076 9.65795 159.58 8.77133 158.833 8.13136C158.085 7.4914 157.135 7.13992 156.154 7.13992C155.172 7.13992 154.222 7.4914 153.475 8.13136C152.727 8.77133 152.231 9.65795 152.075 10.6323H160.232Z" fill="white"/>
    <path d="M164.541 1.59112C164.864 1.58052 165.185 1.6359 165.485 1.7539C165.786 1.87191 166.059 2.05008 166.289 2.2776C166.519 2.50512 166.701 2.77724 166.823 3.07744C166.945 3.37764 167.005 3.69967 167 4.02397C166.97 4.65852 166.698 5.2571 166.241 5.69552C165.783 6.13393 165.176 6.37851 164.544 6.37851C163.912 6.37851 163.304 6.13393 162.847 5.69552C162.39 5.2571 162.118 4.65852 162.088 4.02397C162.082 3.70015 162.142 3.3786 162.264 3.07878C162.386 2.77896 162.567 2.50711 162.796 2.27967C163.026 2.05223 163.299 1.87394 163.599 1.75559C163.898 1.63724 164.219 1.58129 164.541 1.59112ZM164.541 5.8667C164.78 5.86831 165.017 5.82142 165.238 5.72882C165.459 5.63621 165.658 5.49981 165.825 5.32777C165.992 5.15573 166.123 4.95159 166.21 4.72756C166.296 4.50354 166.337 4.26423 166.33 4.02397C166.343 3.77978 166.307 3.53539 166.224 3.30573C166.14 3.07608 166.011 2.86599 165.843 2.68831C165.676 2.51063 165.475 2.3691 165.251 2.27238C165.028 2.17565 164.787 2.12576 164.544 2.12576C164.301 2.12576 164.06 2.17565 163.836 2.27238C163.613 2.3691 163.411 2.51063 163.244 2.68831C163.077 2.86599 162.948 3.07608 162.864 3.30573C162.78 3.53539 162.744 3.77978 162.758 4.02397C162.75 4.26376 162.791 4.5026 162.877 4.72626C162.964 4.94991 163.094 5.1538 163.26 5.32576C163.427 5.49772 163.626 5.63424 163.846 5.72718C164.066 5.82011 164.302 5.86756 164.541 5.8667ZM163.5 2.70455H164.774C164.889 2.69613 165.005 2.71177 165.115 2.7505C165.224 2.78924 165.324 2.85023 165.409 2.92967C165.493 3.0091 165.561 3.10526 165.607 3.21214C165.653 3.31901 165.677 3.43429 165.676 3.55076C165.677 3.70741 165.634 3.86113 165.552 3.99414C165.47 4.12714 165.351 4.23399 165.211 4.30233L165.721 5.28215H165.056L164.619 4.3747H164.065V5.26545H163.511L163.5 2.70455ZM164.713 3.89593C164.762 3.90092 164.811 3.89508 164.858 3.87882C164.904 3.86256 164.947 3.83628 164.982 3.8018C165.017 3.76733 165.045 3.7255 165.062 3.67925C165.08 3.633 165.087 3.58345 165.084 3.53406C165.083 3.48718 165.073 3.44093 165.054 3.39831C165.034 3.35568 165.006 3.31764 164.971 3.28666C164.936 3.25568 164.895 3.23245 164.851 3.21848C164.806 3.20452 164.759 3.20013 164.713 3.2056H164.076V3.90149L164.713 3.89593Z" fill="white"/>
  </g>
  <defs>
    <clipPath id="clip0_344_631">
      <rect fill="white" height="24" transform="translate(0 0.5)" width="167"/>
    </clipPath>
  </defs>
</svg>